HIERARCHY
ROOT Hips
{
	OFFSET -0.001795 -0.223333 0.028219
	CHANNELS 6 Xposition Yposition Zposition Zrotation Yrotation Xrotation 
	JOINT LeftUpLeg
	{
		OFFSET 0.069520 -0.091406 -0.006815
		CHANNELS 3 Zrotation Yrotation Xrotation
		JOINT LeftLeg
		{
			OFFSET 0.034277 -0.375199 -0.004496
			CHANNELS 3 Zrotation Yrotation Xrotation
			JOINT LeftFoot
			{
				OFFSET -0.013596 -0.397961 -0.043693
				CHANNELS 3 Zrotation Yrotation Xrotation
				JOINT LeftToe
				{
					OFFSET 0.026358 -0.055791 0.119288
					CHANNELS 3 Zrotation Yrotation Xrotation
					End Site
					{
						OFFSET 0.000000 0.000000 0.000000
					}
				}
			}
		}
	}
	JOINT RightUpLeg
	{
		OFFSET -0.067670 -0.090522 -0.004320
		CHANNELS 3 Zrotation Yrotation Xrotation
		JOINT RightLeg
		{
			OFFSET -0.038290 -0.382569 -0.008850
			CHANNELS 3 Zrotation Yrotation Xrotation
			JOINT RightFoot
			{
				OFFSET 0.015774 -0.398415 -0.042312
				CHANNELS 3 Zrotation Yrotation Xrotation
				JOINT RightToe
				{
					OFFSET -0.025372 -0.048144 0.123348
					CHANNELS 3 Zrotation Yrotation Xrotation
					End Site
					{
						OFFSET 0.000000 0.000000 0.000000
					}
				}
			}
		}
	}
	JOINT Spine
	{
		OFFSET -0.002533 0.108963 -0.026696
		CHANNELS 3 Zrotation Yrotation Xrotation
		JOINT Spine1
		{
			OFFSET 0.005487 0.135180 0.001092
			CHANNELS 3 Zrotation Yrotation Xrotation
			JOINT Spine2
			{
				OFFSET 0.001457 0.052922 0.025425
				CHANNELS 3 Zrotation Yrotation Xrotation
				JOINT Neck
				{
					OFFSET -0.002778 0.213870 -0.042857
					CHANNELS 3 Zrotation Yrotation Xrotation
					JOINT Head
					{
						OFFSET 0.005152 0.064970 0.051349
						CHANNELS 3 Zrotation Yrotation Xrotation
						End Site
						{
							OFFSET 0.000000 0.000000 0.000000
						}
					}
				}
				JOINT LeftShoulder
				{
					OFFSET 0.078845 0.121749 -0.034090
					CHANNELS 3 Zrotation Yrotation Xrotation
					JOINT LeftArm
					{
						OFFSET 0.090977 0.030469 -0.008868
						CHANNELS 3 Zrotation Yrotation Xrotation
						JOINT LeftForeArm
						{
							OFFSET 0.259612 -0.012772 -0.027456
							CHANNELS 3 Zrotation Yrotation Xrotation
							JOINT LeftHand
							{
								OFFSET 0.249234 0.008986 -0.001171
								CHANNELS 3 Zrotation Yrotation Xrotation
								End Site
								{
									OFFSET 0.000000 0.000000 0.000000
								}
							}
						}
					}
				}
				JOINT RightShoulder
				{
					OFFSET -0.081759 0.118833 -0.038615
					CHANNELS 3 Zrotation Yrotation Xrotation
					JOINT RightArm
					{
						OFFSET -0.096012 0.032551 -0.009143
						CHANNELS 3 Zrotation Yrotation Xrotation
						JOINT RightForeArm
						{
							OFFSET -0.253742 -0.013329 -0.021401
							CHANNELS 3 Zrotation Yrotation Xrotation
							JOINT RightHand
							{
								OFFSET -0.255298 0.007772 -0.005559
								CHANNELS 3 Zrotation Yrotation Xrotation
								End Site
								{
									OFFSET 0.000000 0.000000 0.000000
								}
							}
						}
					}
				}
			}
		}
	}
}
MOTION
Frames: 7
Frame Time: 0.050000
0.012812 0.935316 -0.046715 -3.284074 3.156982 6.435031 3.392772 -0.196875 -1.265417 6.229432 0.278120 -10.647776 1.178856 5.988817 9.106795 0.000000 0.000000 0.000000 -2.010168 0.771963 -8.477629 -0.124241 0.056846 1.109000 -0.627564 -4.968313 9.384913 0.000000 0.000000 0.000000 -1.903140 0.187141 -5.823831 0.271148 -0.039152 -2.331682 3.811480 -3.079825 -0.995215 -3.230957 2.650477 -7.347634 0.000000 0.000000 0.000000 -7.377705 -3.087962 0.753700 -63.388661 -26.362354 8.196031 -155.010715 -75.309537 154.567339 0.000000 0.000000 0.000000 2.851989 13.816297 4.717535 30.048421 44.026192 7.475412 -172.380452 75.458395 -166.612362 0.000000 0.000000 0.000000 
0.012850 0.935539 -0.047953 -3.318121 2.976822 6.563380 3.468586 -0.206139 -1.385178 6.126426 0.289723 -10.767007 1.235912 6.126510 9.283464 0.000000 0.000000 0.000000 -1.934830 0.796963 -8.729511 -0.232037 0.069778 1.110930 -0.534169 -4.839061 9.518767 0.000000 0.000000 0.000000 -1.994511 0.189703 -5.938158 0.455021 -0.123513 -2.304775 3.887468 -3.210418 -0.703901 -3.049624 2.515311 -7.217074 0.000000 0.000000 0.000000 -6.869979 -2.924013 0.732998 -63.811066 -26.885005 8.614170 -155.088499 -74.519309 154.494215 0.000000 0.000000 0.000000 2.939108 13.633262 4.634476 32.638332 44.046240 8.334619 -174.185391 76.038218 -169.217074 0.000000 0.000000 0.000000 
0.012728 0.935911 -0.049697 -3.318162 2.788340 6.678436 3.611890 -0.220097 -1.563557 5.849897 0.296787 -10.810390 1.290397 6.264381 9.484299 0.000000 0.000000 0.000000 -1.817435 0.826733 -9.018336 -0.465790 0.098890 1.146489 -0.433754 -4.710522 9.690065 0.000000 0.000000 0.000000 -2.010496 0.191224 -5.917684 0.505122 -0.158475 -2.022144 3.975554 -3.064403 -0.768838 -3.119080 2.564629 -7.296607 0.000000 0.000000 0.000000 -6.393705 -2.974901 0.770742 -64.347177 -27.431610 9.076862 -155.425165 -73.436542 154.400948 0.000000 0.000000 0.000000 3.514301 13.330775 4.524995 35.704301 44.133417 9.443482 -176.910201 76.712369 -172.834535 0.000000 0.000000 0.000000 
0.012576 0.936009 -0.051744 -3.368397 2.609988 6.931811 3.793364 -0.248981 -1.969528 5.617907 0.296420 -10.760010 1.375300 6.423086 9.589839 0.000000 0.000000 0.000000 -1.616596 0.870656 -9.414125 -0.755195 0.129168 1.064244 -0.342530 -4.597081 9.847815 0.000000 0.000000 0.000000 -2.154935 0.194888 -6.078992 0.641860 -0.229087 -1.823673 4.191352 -3.124795 -0.790687 -3.152370 2.580360 -7.501417 0.000000 0.000000 0.000000 -6.162187 -2.929333 0.779337 -64.530441 -28.021026 9.527815 -157.140422 -72.807350 156.517765 0.000000 0.000000 0.000000 3.497568 13.383594 4.528257 38.221347 44.578828 10.465907 -176.852158 77.519190 -173.003944 0.000000 0.000000 0.000000 
0.012422 0.936280 -0.053879 -3.373646 2.519318 7.130170 3.918353 -0.269748 -2.272978 5.406403 0.304660 -10.828893 1.387136 6.497701 9.798814 0.000000 0.000000 0.000000 -1.506521 0.907422 -9.777422 -0.958257 0.151841 1.046051 -0.283425 -4.549811 10.039939 0.000000 0.000000 0.000000 -2.203360 0.197301 -6.145296 0.670604 -0.245098 -1.758635 4.232415 -2.970191 -0.833138 -3.044690 2.509429 -7.438959 0.000000 0.000000 0.000000 -5.873926 -2.991711 0.808001 -65.040165 -28.565966 9.984637 -158.631254 -72.187818 158.189169 0.000000 0.000000 0.000000 3.768827 13.281396 4.497866 40.591228 45.131577 11.543433 -177.375498 78.034149 -173.677114 0.000000 0.000000 0.000000 
0.012281 0.936465 -0.055793 -3.461507 2.476942 7.320765 4.073709 -0.291451 -2.586780 5.313890 0.308686 -10.859860 1.395791 6.551685 9.945321 0.000000 0.000000 0.000000 -1.293807 0.928849 -9.894419 -1.176536 0.156747 0.629866 -0.215727 -4.505102 10.310938 0.000000 0.000000 0.000000 -2.221612 0.203404 -6.384570 0.669761 -0.246328 -1.722579 4.247318 -2.869331 -0.665896 -3.311737 2.691404 -7.123388 0.000000 0.000000 0.000000 -5.359083 -2.968229 0.815129 -65.827395 -29.470848 10.734082 -160.121552 -72.028350 160.119336 0.000000 0.000000 0.000000 3.676235 13.308016 4.517085 42.900094 45.785411 12.652809 -175.472954 78.288343 -171.283281 0.000000 0.000000 0.000000 
0.012207 0.936862 -0.057271 -3.595803 2.836696 7.630913 4.271078 -0.322295 -3.003987 5.281638 0.323580 -11.051536 1.194038 6.320081 10.185129 0.000000 0.000000 0.000000 -1.098138 0.949480 -10.027177 -1.245152 0.140913 0.143681 -0.308043 -4.768185 10.716008 0.000000 0.000000 0.000000 -2.247954 0.208130 -6.696486 0.766003 -0.288495 -1.725198 4.192584 -2.731422 -0.650772 -3.166845 2.603967 -6.987325 0.000000 0.000000 0.000000 -4.688033 -3.033794 0.846540 -66.808016 -30.096576 11.340389 -162.176549 -71.143623 162.413261 0.000000 0.000000 0.000000 3.558776 12.822349 4.359393 45.324635 46.078364 13.742619 -174.557997 77.271496 -169.766240 0.000000 0.000000 0.000000 
